# xmcd
#
# Track frame offsets: 
#        150
#        23257
#        45614
#        80044
#        104198
#        126529
#        139839
#        164890
#        191109
#        214408
#        239995
#        266562
#        286000
#
# Disc length: 4145 seconds
#
# Revision: 0
# Processed by: cddbd v1.5.1PL2 Copyright (c) Steve Scherf et al.
# Submitted via: ExactAudioCopy v0.95b3
#
DISCID=d4102f0d
DTITLE=Slobberbone - Bend Studio Brent Best Unplugged
DYEAR=2006
DGENRE=Alternative Country
TTITLE0=Trust Jesus
TTITLE1=Write Me Off
TTITLE2=Robert Cole
TTITLE3=Lazy Guy
TTITLE4=One Rung
TTITLE5=Dunk You In The River
TTITLE6=Queen Bee
TTITLE7=Billy Pritchard
TTITLE8=Little Sister
TTITLE9=Fireflies
TTITLE10=Live on in the Dark
TTITLE11=Front Porch
TTITLE12=Pinball Song
EXTD=
EXTT0=
EXTT1=
EXTT2=
EXTT3=
EXTT4=
EXTT5=
EXTT6=
EXTT7=
EXTT8=
EXTT9=
EXTT10=
EXTT11=
EXTT12=
PLAYORDER=
